<svg xmlns="http://www.w3.org/2000/svg" width="86" height="89" fill="none" viewBox="0 0 106 109"><path fill="#00B2FF" fill-rule="evenodd" d="M52.7428 108.75L0 54.375L52.7428 0L105.486 54.375L52.7428 108.75ZM52.7428 99.9617L96.9611 54.375L52.7428 8.78833L8.52452 54.375L52.7428 99.9617Z" clip-rule="evenodd"/><path fill="#00B2FF" fill-rule="evenodd" d="M52.7428 108.75L76.8538 59.3182L52.7428 0L28.6318 59.3182L52.7428 108.75ZM52.7428 94.9176L70.2222 59.0818L52.7428 16.079L35.2635 59.0818L52.7428 94.9176Z" clip-rule="evenodd"/><path fill="#00B2FF" fill-rule="evenodd" d="M4.52068 56.3169L3.50195 51.2678L52.9867 62.0081L102.471 51.2678L101.718 56.7053L96.8205 58.8448L52.9867 68.3586L7.53445 58.4935L4.52068 56.3169Z" clip-rule="evenodd"/><path fill="#00B2FF" fill-rule="evenodd" d="M49.729 105.643V6.99103H55.7568V105.643H49.729Z" clip-rule="evenodd"/></svg>